<svg xmlns="http://www.w3.org/2000/svg" xmlns:xlink="http://www.w3.org/1999/xlink" width="32" height="32" viewBox="0 0 32 32">
  <defs>
    <clipPath id="clip-Accident">
      <rect width="32" height="32"/>
    </clipPath>
  </defs>
  <g id="Accident" clip-path="url(#clip-Accident)">
    <g id="Group_36145" data-name="Group 36145" transform="translate(-174 -320)">
      <circle id="Ellipse_1330" data-name="Ellipse 1330" cx="16" cy="16" r="16" transform="translate(174 320)" fill="#f60a00"/>
      <path id="Ellipse_1330_-_Outline" data-name="Ellipse 1330 - Outline" d="M16,.5A15.5,15.5,0,0,0,5.04,26.96,15.5,15.5,0,0,0,26.96,5.04,15.4,15.4,0,0,0,16,.5M16,0A16,16,0,1,1,0,16,16,16,0,0,1,16,0Z" transform="translate(174 320)" fill="#fff"/>
    </g>
    <path id="Rectangle_12693" data-name="Rectangle 12693" d="M14,1A13,13,0,0,0,4.808,23.192,13,13,0,0,0,23.192,4.808,12.915,12.915,0,0,0,14,1m0-1A14,14,0,1,1,0,14,14,14,0,0,1,14,0Z" transform="translate(2 2)" fill="#fff"/>
    <path id="Path_53415" data-name="Path 53415" d="M5.257-13.75a.443.443,0,0,0-.448.3l-.865,2.208L1.676-11.93a.49.49,0,0,0-.537.149.482.482,0,0,0-.03.537L2.3-9.184.333-7.841a.487.487,0,0,0-.209.507.492.492,0,0,0,.418.358l2.328.358L2.721-4.231a.448.448,0,0,0,.269.477.445.445,0,0,0,.507-.09l1.074-.985.269-1.044.328-1.164A2.535,2.535,0,0,1,6.9-8.826l1.223-1.79a3.432,3.432,0,0,1,1.283-1.1.086.086,0,0,1-.03-.06.454.454,0,0,0-.507-.149l-2.3.686L5.7-13.452A.443.443,0,0,0,5.257-13.75Zm5.73,4.6L15.015-8.08a.444.444,0,0,1,.358.418l.149,1.7L9.495-7.573l.955-1.4A.472.472,0,0,1,10.987-9.154ZM8.9-10.05,7.465-7.991A1.646,1.646,0,0,0,6.093-6.767L5.764-5.633l-.477,1.85-.269.925a.9.9,0,0,0,.119.716.926.926,0,0,0,.567.448l.448.119a.88.88,0,0,0,.746-.09.926.926,0,0,0,.448-.567l.239-.925,7.371,1.97-.239.925a.985.985,0,0,0,.09.716A1.048,1.048,0,0,0,15.4.9l.448.119a.823.823,0,0,0,.716-.09.926.926,0,0,0,.448-.567l.269-.925.477-1.85.3-1.164A1.617,1.617,0,0,0,17.492-5.3l-.209-2.507a2.3,2.3,0,0,0-.537-1.343,2.407,2.407,0,0,0-1.223-.776L11.464-11a2.2,2.2,0,0,0-1.432.06A2.252,2.252,0,0,0,8.9-10.05ZM8.391-6.14a.717.717,0,0,1,.507.865.726.726,0,0,1-.9.507A.737.737,0,0,1,7.5-5.633.726.726,0,0,1,8.391-6.14ZM14.9-3.664A.671.671,0,0,1,15.4-4.2a.643.643,0,0,1,.686.179.7.7,0,0,1,.179.716A.7.7,0,0,1,15.4-2.8.7.7,0,0,1,14.9-3.664Z" transform="translate(6.887 22.749)" fill="#fff"/>
  </g>
</svg>
