<svg xmlns="http://www.w3.org/2000/svg" xmlns:xlink="http://www.w3.org/1999/xlink" width="32" height="32" viewBox="0 0 32 32">
  <defs>
    <clipPath id="clip-HeavyTraffic">
      <rect width="32" height="32"/>
    </clipPath>
  </defs>
  <g id="HeavyTraffic" clip-path="url(#clip-HeavyTraffic)">
    <g id="Group_36145" data-name="Group 36145" transform="translate(-174 -320)">
      <circle id="Ellipse_1330" data-name="Ellipse 1330" cx="16" cy="16" r="16" transform="translate(174 320)" fill="#a90000"/>
      <path id="Ellipse_1330_-_Outline" data-name="Ellipse 1330 - Outline" d="M16,.5A15.5,15.5,0,0,0,5.04,26.96,15.5,15.5,0,0,0,26.96,5.04,15.4,15.4,0,0,0,16,.5M16,0A16,16,0,1,1,0,16,16,16,0,0,1,16,0Z" transform="translate(174 320)" fill="#fff"/>
    </g>
    <path id="Rectangle_12693" data-name="Rectangle 12693" d="M14,1A13,13,0,0,0,4.808,23.192,13,13,0,0,0,23.192,4.808,12.915,12.915,0,0,0,14,1m0-1A14,14,0,1,1,0,14,14,14,0,0,1,14,0Z" transform="translate(2 2)" fill="#fff"/>
    <path id="traffic-jam-02-solid-rounded" d="M8.332,2.25H5.7A12.417,12.417,0,0,0,4.3,2.3a2.023,2.023,0,0,0-1.084.418,2.023,2.023,0,0,0-.622.981,12.425,12.425,0,0,0-.32,1.363L2,6.435a1.68,1.68,0,0,0-.153.135A2.027,2.027,0,0,0,1.309,7.8,13.649,13.649,0,0,0,1.25,9.467h0v2.271a.558.558,0,0,0,.558.558h.744V11.65h0A13.922,13.922,0,0,1,2.62,9.907a2.968,2.968,0,0,1,.762-1.718l.224-1.122c.075-.377.15-.751.24-1.089-.226.006-.433.016-.622.035l.141-.7a11.939,11.939,0,0,1,.292-1.265.933.933,0,0,1,.27-.468A.933.933,0,0,1,4.439,3.4a11.945,11.945,0,0,1,1.3-.038H8.3a11.945,11.945,0,0,1,1.3.038,1.015,1.015,0,0,1,.48.148h.533c.265,0,.53,0,.782.007a1.922,1.922,0,0,0-.574-.845A2.023,2.023,0,0,0,9.732,2.3a12.417,12.417,0,0,0-1.4-.046Zm1.836,4.465h0a12.417,12.417,0,0,0-1.4.046,1.852,1.852,0,0,0-1.706,1.4,12.426,12.426,0,0,0-.32,1.363L6.467,10.9a1.675,1.675,0,0,0-.153.135,2.027,2.027,0,0,0-.54,1.228,13.635,13.635,0,0,0-.059,1.669h0V16.2a.558.558,0,0,0,.558.558h.744a.558.558,0,0,0,.558-.558v-.93H15.39v.93a.558.558,0,0,0,.558.558h.744a.558.558,0,0,0,.558-.558V13.932h0a13.634,13.634,0,0,0-.059-1.669,2.027,2.027,0,0,0-.54-1.228A1.673,1.673,0,0,0,16.5,10.9l-.275-1.377A12.417,12.417,0,0,0,15.9,8.16a1.852,1.852,0,0,0-1.706-1.4,12.416,12.416,0,0,0-1.4-.046H10.168Zm2.8,6.512a.558.558,0,0,1,.464.249l.454.682H9.074l.454-.682a.558.558,0,0,1,.464-.249ZM7.2,12.668a.558.558,0,0,1,1.116,0v.007a.558.558,0,0,1-1.116,0Zm8-.565a.558.558,0,0,0-.558.558v.007a.558.558,0,0,0,1.116,0v-.007A.558.558,0,0,0,15.2,12.1ZM9.211,10.436h4.542c.6,0,1.1,0,1.521.042l-.141-.7a11.946,11.946,0,0,0-.292-1.265.765.765,0,0,0-.782-.641,11.944,11.944,0,0,0-1.3-.038H10.2a11.945,11.945,0,0,0-1.3.038.934.934,0,0,0-.512.173.934.934,0,0,0-.27.468A11.955,11.955,0,0,0,7.83,9.776l-.141.7C8.106,10.436,8.614,10.436,9.211,10.436ZM7.935,4.483h2.629a12.417,12.417,0,0,1,1.4.046,2.023,2.023,0,0,1,1.084.418,1.922,1.922,0,0,1,.574.845c-.253-.007-.517-.007-.782-.007h-.533a1.015,1.015,0,0,0-.48-.148,11.945,11.945,0,0,0-1.3-.038H7.969a11.945,11.945,0,0,0-1.3.038.933.933,0,0,0-.512.173.933.933,0,0,0-.27.468A11.938,11.938,0,0,0,5.6,7.543l-.141.7c.189-.019.4-.03.622-.035-.089.337-.164.712-.24,1.089l-.224,1.122a2.968,2.968,0,0,0-.762,1.718,13.921,13.921,0,0,0-.068,1.743h0v.646H4.041a.558.558,0,0,1-.558-.558V11.7a13.65,13.65,0,0,1,.059-1.669A2.027,2.027,0,0,1,4.082,8.8a1.675,1.675,0,0,1,.153-.135L4.51,7.291a12.425,12.425,0,0,1,.32-1.363,2.023,2.023,0,0,1,.622-.981,2.023,2.023,0,0,1,1.084-.418A12.417,12.417,0,0,1,7.935,4.483Z" transform="translate(6.75 6.75)" fill="#fff" fill-rule="evenodd"/>
  </g>
</svg>
