<svg xmlns="http://www.w3.org/2000/svg" xmlns:xlink="http://www.w3.org/1999/xlink" width="32" height="32" viewBox="0 0 32 32">
  <defs>
    <clipPath id="clip-Roadworks">
      <rect width="32" height="32"/>
    </clipPath>
  </defs>
  <g id="Roadworks" clip-path="url(#clip-Roadworks)">
    <g id="Group_36154" data-name="Group 36154" transform="translate(-333.361 -2340.832)">
      <path id="Path_116268" data-name="Path 116268" d="M353.507,2344.324a4.714,4.714,0,0,0-8.291,0l-11.221,20.125a5.038,5.038,0,0,0,.01,4.909,4.756,4.756,0,0,0,4.135,2.452h22.442a4.756,4.756,0,0,0,4.135-2.452,5.038,5.038,0,0,0,.01-4.909Z" fill="#fff" fill-rule="evenodd"/>
      <path id="Path_116269" data-name="Path 116269" d="M353.507,2344.324a4.714,4.714,0,0,0-8.291,0l-11.221,20.125a5.038,5.038,0,0,0,.01,4.909,4.756,4.756,0,0,0,4.135,2.452h22.442a4.756,4.756,0,0,0,4.135-2.452,5.038,5.038,0,0,0,.01-4.909Zm-2.616,1.459,11.221,20.125a2.033,2.033,0,0,1,0,1.98,1.766,1.766,0,0,1-1.525.926H338.14a1.766,1.766,0,0,1-1.525-.926,2.033,2.033,0,0,1,0-1.98l11.221-20.125a1.719,1.719,0,0,1,3.058,0Z" fill="red" fill-rule="evenodd"/>
      <path id="Path_116270" data-name="Path 116270" d="M400.723,2440.124l.417.141a1.36,1.36,0,0,0-.019.224v2.595l-2.751,2.579a1.329,1.329,0,1,0,1.817,1.939l3.171-2.973a1.329,1.329,0,0,0,.4-.72l.339.322v2.4a1.329,1.329,0,1,0,2.657,0v-2.973a1.327,1.327,0,0,0-.415-.964l-1.095-1.038.91.309.1.178a1.33,1.33,0,0,0,1.816.485l.012-.007,2.244.762a3.294,3.294,0,0,0-.345.354c-.3.364-.326.938-.595,1.308-.207.284-.8.333-.991.594-.9,1.259-1.054,2.416-.2,2.416h4.963a2.272,2.272,0,0,0,1.975-1.171,2.406,2.406,0,0,0,0-2.344l-1.929-3.459c-.352-.632-1.054-.414-1.844.24-.276.229-.2.917-.379,1.351l-2.32-.788a1.324,1.324,0,0,0-.115-1.072l-2.176-3.759a1.328,1.328,0,0,0-1.154-.67h-4.558a1.328,1.328,0,0,0-1.154.67l-.793,1.387a1.329,1.329,0,0,0,2,1.681Zm3.663.308,1.092.371-.536-.926Zm-3.134-1.064.329.112.436-.437h-.58Zm6.884-5.023a1.685,1.685,0,1,0,1.685,1.685A1.686,1.686,0,0,0,408.136,2434.345Z" transform="translate(-55.737 -80.536)" fill-rule="evenodd"/>
    </g>
  </g>
</svg>
