<svg xmlns="http://www.w3.org/2000/svg" width="240" height="82.789" viewBox="0 0 240 82.789">
  <g id="Group_35713" data-name="Group 35713" transform="translate(-68 -367)">
    <g id="SPACE42_Full_Colour_Logo_RGB_FA_Blue_on_white_background" data-name="SPACE42_Full Colour Logo_RGB_FA_Blue on white background" transform="translate(-25.75 273.24)">
      <g id="Artwork" transform="translate(93.75 93.76)">
        <g id="Group_34727" data-name="Group 34727" transform="translate(0 0)">
          <g id="Group_34726" data-name="Group 34726">
            <g id="Group_34725" data-name="Group 34725" transform="translate(148.8 11.459)">
              <g id="Group_34723" data-name="Group 34723" transform="translate(0 5.339)">
                <rect id="Rectangle_11078" data-name="Rectangle 11078" width="24" height="4.8" transform="translate(0 9.6)" fill="#121a6b"/>
                <rect id="Rectangle_11079" data-name="Rectangle 11079" width="24" height="4.8" fill="#121a6b"/>
              </g>
              <line id="Line_130" data-name="Line 130" x1="10.992" y2="8.717" transform="translate(38.363 6.222)" fill="#121a6b"/>
              <g id="Group_34724" data-name="Group 34724" transform="translate(31.201)">
                <path id="Path_111371" data-name="Path 111371" d="M1290.593,171.88h-6.807l-18.156,14.4v4.8h18.156v4.8h6.807v-4.8h5.044v-4.8h-5.044Zm-6.809,14.4h-10.992l10.992-8.718Z" transform="translate(-1265.63 -171.339)" fill="#121a6b"/>
                <path id="Path_111372" data-name="Path 111372" d="M1506.547,175.667a5.7,5.7,0,0,0-.891-3.16,6.967,6.967,0,0,0-2.547-2.286,13.986,13.986,0,0,0-4-1.387,26.535,26.535,0,0,0-5.249-.475,23.818,23.818,0,0,0-5.307.547,13.532,13.532,0,0,0-4.089,1.608,9.258,9.258,0,0,0-2.783,2.58,8.561,8.561,0,0,0-1.4,3.494h7.428a4.384,4.384,0,0,1,.653-1.65,3.75,3.75,0,0,1,1.249-1.15,6.149,6.149,0,0,1,1.837-.67,11.461,11.461,0,0,1,2.335-.221,13.669,13.669,0,0,1,2.359.187,6.942,6.942,0,0,1,1.779.547,3.155,3.155,0,0,1,1.152.889,2.04,2.04,0,0,1,.409,1.273,2.8,2.8,0,0,1-.115.833,2.144,2.144,0,0,1-.375.694,3.03,3.03,0,0,1-.653.6,5.46,5.46,0,0,1-.948.507,10.019,10.019,0,0,1-1.3.441c-.495.137-1.043.275-1.641.416l-3.216.6a31.1,31.1,0,0,0-4.032,1.1,17.057,17.057,0,0,0-3.078,1.421,10.487,10.487,0,0,0-2.229,1.763,7.883,7.883,0,0,0-1.461,2.187,11.121,11.121,0,0,0-.8,2.67,18.681,18.681,0,0,0-.253,3.2v.67h27.167v-4.8h-19.185a3.113,3.113,0,0,1,.278-1.044,2.75,2.75,0,0,1,.636-.776,5.253,5.253,0,0,1,.963-.645,11.5,11.5,0,0,1,1.29-.571q.735-.279,1.616-.522t1.943-.458l3.379-.637q1.617-.359,2.906-.776a16.849,16.849,0,0,0,2.293-.914,8.381,8.381,0,0,0,1.739-1.127,5.8,5.8,0,0,0,1.9-3,7.66,7.66,0,0,0,.237-1.968Z" transform="translate(-1446.548 -168.36)" fill="#121a6b"/>
              </g>
            </g>
            <path id="Path_111373" data-name="Path 111373" d="M235.351,105.759h24v-12H93.75v48h165.6v-12h-24v-24Zm-102.09,16.767a5.94,5.94,0,0,1-.971,3.388,7.617,7.617,0,0,1-2.759,2.416,15.138,15.138,0,0,1-4.31,1.47,29.344,29.344,0,0,1-5.657.5,24.709,24.709,0,0,1-5.46-.547,16.35,16.35,0,0,1-4.327-1.559,9.822,9.822,0,0,1-3.02-2.473,7.659,7.659,0,0,1-1.544-3.273h7.413a3.262,3.262,0,0,0,.547,1.02,4.779,4.779,0,0,0,.857.84,5.942,5.942,0,0,0,1.126.67,7.129,7.129,0,0,0,1.372.465,13.936,13.936,0,0,0,1.6.269,15.478,15.478,0,0,0,1.763.1q.947,0,1.8-.081c.565-.054,1.087-.123,1.567-.2a7.058,7.058,0,0,0,1.306-.344,3.923,3.923,0,0,0,.98-.515,2.186,2.186,0,0,0,.611-.685,1.652,1.652,0,0,0,.221-.816v-.032a1.8,1.8,0,0,0-.343-1.1,2.63,2.63,0,0,0-1.094-.793,8.849,8.849,0,0,0-1.886-.539q-1.136-.212-2.67-.376l-4.147-.441a27.142,27.142,0,0,1-4.563-.816,11.749,11.749,0,0,1-3.339-1.453,6.1,6.1,0,0,1-2.041-2.155,5.962,5.962,0,0,1-.685-2.906v-.032a5.127,5.127,0,0,1,.449-2.147,6.05,6.05,0,0,1,1.289-1.812,8.481,8.481,0,0,1,2.032-1.445,14.484,14.484,0,0,1,2.653-1.044,20.407,20.407,0,0,1,3.16-.637,28.731,28.731,0,0,1,3.559-.212,24.487,24.487,0,0,1,5.012.482,14.982,14.982,0,0,1,4.049,1.421,9.623,9.623,0,0,1,2.9,2.327,8.008,8.008,0,0,1,1.608,3.167h-7.445a2.825,2.825,0,0,0-.9-1.273,6.067,6.067,0,0,0-1.5-.889,8.531,8.531,0,0,0-1.943-.547,13.792,13.792,0,0,0-2.27-.18q-.767,0-1.495.065a12.307,12.307,0,0,0-1.389.2,9.1,9.1,0,0,0-1.207.335,4.106,4.106,0,0,0-.931.456,2.038,2.038,0,0,0-.605.621,1.448,1.448,0,0,0-.22.766v.017a1.649,1.649,0,0,0,.286.955,2.288,2.288,0,0,0,.955.727,7.815,7.815,0,0,0,1.731.522,23.975,23.975,0,0,0,2.613.343l4.179.49a35.093,35.093,0,0,1,4.711.793,12.319,12.319,0,0,1,3.493,1.379,6.19,6.19,0,0,1,2.147,2.106,5.7,5.7,0,0,1,.734,2.955v.064Zm24.9-8.9a3.164,3.164,0,0,1-.278,1.4,2.528,2.528,0,0,1-.817.948,3.568,3.568,0,0,1-1.362.555,9.439,9.439,0,0,1-1.918.172H146.3v-6.139h7.477a9.085,9.085,0,0,1,1.918.18,3.861,3.861,0,0,1,1.362.547,2.391,2.391,0,0,1,.817.931A3.229,3.229,0,0,1,158.156,113.627Zm7.184,0a8.082,8.082,0,0,1-.783,3.723,6.162,6.162,0,0,1-2.212,2.424,10.025,10.025,0,0,1-3.411,1.307,22.28,22.28,0,0,1-4.4.4H146.4v8.277h-6.824v-24h14.956a22.4,22.4,0,0,1,4.4.4,9.936,9.936,0,0,1,3.411,1.313,6.258,6.258,0,0,1,2.212,2.416,8.056,8.056,0,0,1,.783,3.739Zm40.8,4.13a8.334,8.334,0,0,0,.3,2.3,7.313,7.313,0,0,0,.833,1.885,6.206,6.206,0,0,0,1.3,1.478,7.7,7.7,0,0,0,1.682,1.061,9.312,9.312,0,0,0,1.985.653,10.572,10.572,0,0,0,2.212.229,12.589,12.589,0,0,0,2.465-.237,9.124,9.124,0,0,0,2.164-.7,6.089,6.089,0,0,0,1.707-1.207,5.593,5.593,0,0,0,1.16-1.722h7.265a9.831,9.831,0,0,1-1.862,3.739,11.69,11.69,0,0,1-3.233,2.743,16.124,16.124,0,0,1-4.4,1.722,22.76,22.76,0,0,1-5.347.6,20.844,20.844,0,0,1-6.2-.874,14.438,14.438,0,0,1-4.849-2.514,11.454,11.454,0,0,1-3.15-3.935,12.725,12.725,0,0,1,0-10.433,11.454,11.454,0,0,1,3.15-3.935,14.437,14.437,0,0,1,4.849-2.514,20.844,20.844,0,0,1,6.2-.874,22.851,22.851,0,0,1,5.347.6,16.193,16.193,0,0,1,4.4,1.722,11.615,11.615,0,0,1,3.233,2.751,9.909,9.909,0,0,1,1.862,3.731h-7.265a5.284,5.284,0,0,0-1.16-1.7,6.8,6.8,0,0,0-1.707-1.209,8.421,8.421,0,0,0-2.164-.727,12.59,12.59,0,0,0-2.465-.237,10.527,10.527,0,0,0-2.22.229,9.345,9.345,0,0,0-1.975.653,7.642,7.642,0,0,0-1.682,1.061,6.206,6.206,0,0,0-1.3,1.478,7.308,7.308,0,0,0-.833,1.894,8.357,8.357,0,0,0-.3,2.295Zm-25.021-7.021-8.2,19.02h-7.152l10.939-24h8.832l10.939,24h-7.152l-8.2-19.02Z" transform="translate(-93.75 -93.76)" fill="#121a6b"/>
          </g>
        </g>
      </g>
    </g>
    <path id="Path_114746" data-name="Path 114746" d="M2.674,7.13,8.8-7.009,14.919,7.13l.3.659h2.388L16.95,6.251,9.812-10.221l-.3-.659H8.083l-.3.659L.643,6.251-.016,7.788H2.372Zm18.751.659h6.15a7.239,7.239,0,0,0,5.189-2.91A8.989,8.989,0,0,0,34.6-1.546a8.719,8.719,0,0,0-1.922-6.507,7.328,7.328,0,0,0-5.106-2.828H20.327V7.788Zm1.1-2.2V-8.684H27.41a5.008,5.008,0,0,1,3.9,2.5,7.25,7.25,0,0,1,1.1,4.557v.082A7.02,7.02,0,0,1,30.9,3.643,4.972,4.972,0,0,1,27.41,5.592ZM53,6.69V-4.675L58.323,7.13l.275.659h1.428L60.3,7.13,65.6-4.675,65.626,6.69v1.1h2.2V6.69L67.795-9.782v-1.1H65.983l-.275.659L59.311,4,52.887-10.221l-.275-.659H50.8V7.788H53ZM73.23,7.13,79.353-7.009,85.475,7.13l.3.659h2.388l-.659-1.537L80.368-10.221l-.3-.659H78.639l-.3.659L71.2,6.251,70.54,7.788h2.388ZM90.883-.448V7.788h2.2V-.448h5.9a5.521,5.521,0,0,0,4.338-1.894,4.832,4.832,0,0,0,1.29-3.294,4.86,4.86,0,0,0-1.922-3.926,5.709,5.709,0,0,0-3.706-1.318l-6.973.027h-1.1v1.1l-.027,8.209Zm2.2-2.169V-8.684h5.9a3.368,3.368,0,0,1,2.828,1.318,2.8,2.8,0,0,1,.6,1.73,2.744,2.744,0,0,1-1.537,2.5,3.8,3.8,0,0,1-1.894.494Zm26.41-3.047a4.738,4.738,0,0,0-1.977-3.844A6.494,6.494,0,0,0,113.4-10.88,6.172,6.172,0,0,0,108.618-8.9a4.713,4.713,0,0,0-1.318,3.24q0,2.443,3.322,4.091.631.3,3.871,1.565,2.663,1.043,3.13,1.977a1.252,1.252,0,0,1,.165.6A2.719,2.719,0,0,1,116,4.988a5.751,5.751,0,0,1-2.608.6,5,5,0,0,1-3.569-1.263A2.549,2.549,0,0,1,109,2.572h-2.2a4.639,4.639,0,0,0,1.949,3.706,7.352,7.352,0,0,0,4.64,1.51A6.968,6.968,0,0,0,118.5,5.812a4.66,4.66,0,0,0,1.482-3.24q0-2.471-3.322-4.146-.659-.3-3.926-1.592-2.636-1.016-3.1-1.922a1.393,1.393,0,0,1-.137-.577,2.709,2.709,0,0,1,1.675-2.471,4.706,4.706,0,0,1,2.224-.549,4.138,4.138,0,0,1,3.212,1.29,2.53,2.53,0,0,1,.686,1.73Z" transform="translate(68.016 442)" fill="#212121"/>
  </g>
</svg>
